# xmcd
#
# Track frame offsets: 
#        150
#        24866
#        47408
#        78909
#        112588
#        131462
#        161964
#        191747
#
# Disc length: 2832 seconds
#
# Revision: 3
# Processed by: cddbd v1.5.2PL0 Copyright (c) Steve Scherf et al.
# Submitted via: ExactAudioCopy v0.99pb5
#
DISCID=550b0e08
DTITLE=Jon Lord and The Hoochie Coochie Men - Live At The Basement  CD 3
DYEAR=2008
DGENRE=Blues
TTITLE0=Jon Lord Interview by Phillip Kafcaloudes
TTITLE1=Jon Lord Interview by Derek Guille
TTITLE2=Green Onions (Melbourne rehearsal)
TTITLE3=Chicken Shack (first Hoochie Coochie Men gig in Melbourne)
TTITLE4=24/7 (live at Fat TV)
TTITLE5=Who's been talkin' (live at Fat TV)
TTITLE6=If this ain't the blues (demo)
TTITLE7=The Hoochie Coochie Men (demo)
EXTD=
EXTT0=
EXTT1=
EXTT2=
EXTT3=
EXTT4=
EXTT5=
EXTT6=
EXTT7=
PLAYORDER=
